<?xml version="1.0" encoding="utf-8"?>
<!-- Generator: Adobe Illustrator 16.0.0, SVG Export Plug-In . SVG Version: 6.00 Build 0)  -->
<!DOCTYPE svg PUBLIC "-//W3C//DTD SVG 1.1//EN" "http://www.w3.org/Graphics/SVG/1.1/DTD/svg11.dtd">
<svg version="1.1" id="Layer_1" xmlns="http://www.w3.org/2000/svg" xmlns:xlink="http://www.w3.org/1999/xlink" x="0px" y="0px"
	 width="500px" height="500px" viewBox="0 0 500 500" enable-background="new 0 0 500 500" xml:space="preserve">
<path id="path6" fill="#BE1E2D" d="M61.925,60.729c12.008-12.011,31.235-2.873,43.023,4.532
	c13.794,8.665,25.993,19.841,37.474,31.321l66.963,66.964l208.147-39.9c1.233-0.618,3.14-0.279,4.407,0.074
	c1.396,0.388,2.66,1.134,3.684,2.158l17.857,17.857c2.201,2.202,2.87,5.395,2.349,8.403c-0.485,2.808-2.273,4.955-4.86,6.104
	l-160.436,76.451l68.359,68.358c18.595-5.313,37.19-10.65,55.888-15.595c3.688-0.975,7.382-1.954,11.105-2.788
	c0.895-0.2,1.794-0.403,2.702-0.532c2.527-0.359,5.252,0.671,7.035,2.454l17.856,18.135c2.116,2.117,2.855,5.195,2.379,8.107
	c-0.446,2.733-2.196,4.845-4.61,6.123l-78.125,43.248l-43.248,78.125c-1.447,2.314-3.645,3.984-6.385,4.367
	c-2.839,0.397-5.792-0.36-7.846-2.414l-17.857-17.857c-1.888-1.887-2.842-4.712-2.403-7.356c0.211-1.274,0.511-2.535,0.808-3.792
	c1.221-5.165,2.609-10.292,3.994-15.414c4.532-16.765,9.293-33.469,14.064-50.167l-68.359-68.359l-76.451,160.437
	c-1.107,2.49-3.146,4.268-5.84,4.811c-3.074,0.619-6.408-0.039-8.668-2.3l-17.857-17.856c-1.674-1.674-2.511-3.813-2.511-6.418
	l0.279-1.674l39.898-208.146l-66.965-66.964c-8.304-8.304-16.31-16.962-23.472-26.28c-5.323-6.926-10.284-14.277-13.852-22.277
	C55.979,82.639,53.229,69.417,61.925,60.729C65.737,56.915,58.108,64.542,61.925,60.729z"/>
</svg>